<?xml version="1.0" encoding="UTF-8"?>
<svg id="Isolation_Mode" data-name="Isolation Mode" xmlns="http://www.w3.org/2000/svg" viewBox="0 0 49.02 49.36">
  <path d="M28.36,7.37c-4.5,.02-8.06,3.61-8.12,8.11-.02,1.34,0,2.68,0,4.03,0,.52-.07,1.04-.12,1.68h-5.43v6.66h5.53v15.9h7.92v-15.91h5.14c.33-2.26,.64-4.4,.97-6.7h-6.1c0-1.79-.02-3.43,0-5.07,.02-1.28,.94-2.2,2.22-2.27,.75-.04,1.51-.01,2.26-.02,.55,0,1.09,0,1.7,0V7.78c-.36-.07-.66-.17-.95-.19-1.67-.09-3.35-.23-5.02-.23Z" style="fill: #6d6e70;"/>
</svg>