<?xml version="1.0" encoding="UTF-8"?>
<svg id="Isolation_Mode" data-name="Isolation Mode" xmlns="http://www.w3.org/2000/svg" viewBox="0 0 49.02 49.36">
  <path d="M34.02,11.64c-1.26,0-2.32,1.09-2.3,2.37,.02,1.3,1.06,2.32,2.35,2.3,1.29-.01,2.32-1.07,2.3-2.35-.02-1.29-1.07-2.32-2.36-2.32Z" style="fill: #6d6e70;"/>
  <path d="M43.88,24.66c0-2.52,.03-5.04,0-7.56-.09-7.11-5.49-12.48-12.59-12.51-4.97-.02-9.94-.01-14.9,0-7.13,.02-12.63,5.54-12.66,12.7-.02,4.9-.02,9.81-.02,14.71,0,7.24,5.46,12.74,12.68,12.76,4.9,.01,9.81-.09,14.71,0,7.11,.13,13.02-5.8,12.79-12.86-.08-2.42-.01-4.84-.01-7.26h0Zm-3.81,7.62c-.03,4.85-3.78,8.64-8.64,8.67-5.1,.03-10.2,.03-15.3-.01-4.72-.04-8.49-3.82-8.54-8.56-.05-4.97-.08-9.94-.07-14.91,.01-5.37,3.73-9.07,9.07-9.08,4.8,0,9.6,0,14.4,.01,5.39,.02,9.05,3.7,9.06,9.07,0,2.42,0,4.84,0,7.25h.01c0,2.52,.01,5.04,0,7.55Z" style="fill: #6d6e70;"/>
  <path d="M23.79,14.6c-5.61,.03-10.06,4.55-10.03,10.18,.03,5.52,4.51,9.97,10.02,9.97,5.6,0,10.11-4.53,10.09-10.13-.02-5.56-4.54-10.05-10.08-10.02Zm.02,16.32c-3.5,0-6.25-2.74-6.27-6.22-.01-3.53,2.76-6.28,6.31-6.27,3.47,.02,6.24,2.8,6.23,6.27-.01,3.47-2.79,6.22-6.28,6.22Z" style="fill: #6d6e70;"/>
</svg>