<svg width="22" height="24" viewBox="0 0 22 24" fill="none" xmlns="http://www.w3.org/2000/svg">
<path opacity="0.61" d="M15.2099 23.43C14.8099 23.4 14.4399 23.38 14.0699 23.34C13.7999 23.31 13.5399 23.23 13.2699 23.17C13.0699 23.12 12.8699 23.08 12.6799 23.02C11.8699 22.77 11.1099 22.42 10.3699 22C9.59988 21.57 8.88989 21.06 8.19989 20.52C7.60989 20.05 7.04989 19.55 6.50989 19.01C6.08989 18.58 5.66989 18.15 5.25989 17.71C4.98989 17.42 4.71985 17.12 4.46985 16.81C4.03985 16.28 3.62991 15.74 3.20991 15.2C2.75991 14.61 2.35987 13.99 1.98987 13.36C1.61987 12.74 1.28988 12.1 0.999883 11.43C0.739883 10.84 0.539878 10.24 0.369878 9.61C0.269878 9.26 0.199907 8.90002 0.149907 8.54002C0.0299075 7.76002 0.00985867 6.99002 0.0998587 6.20002C0.179859 5.54002 0.3399 4.91002 0.5799 4.29002C0.7399 3.89002 0.949866 3.52001 1.16987 3.15001C1.55987 2.52001 2.05988 1.98001 2.61988 1.50001C2.92988 1.24001 3.23987 0.970004 3.54987 0.710004C3.81987 0.490004 4.0999 0.280015 4.4499 0.190015C4.8099 0.100015 5.13985 0.15001 5.46985 0.31001C5.80985 0.48001 6.06989 0.740001 6.31989 1.02C6.74989 1.5 7.07987 2.04001 7.41987 2.59001C7.59987 2.87001 7.7799 3.15001 7.9499 3.44001C8.2399 3.94001 8.48987 4.46002 8.60987 5.04002C8.67987 5.37002 8.67987 5.70001 8.60987 6.03001C8.50987 6.48001 8.25987 6.86003 7.91987 7.17003C7.42987 7.63003 6.90987 8.05002 6.35987 8.45002C5.91987 8.77002 5.67987 9.21 5.66987 9.77C5.66987 10.18 5.74991 10.57 5.89991 10.95C6.10991 11.5 6.40987 12.01 6.73987 12.5C7.04987 12.96 7.37988 13.42 7.74988 13.84C8.12988 14.27 8.48989 14.71 8.87989 15.12C9.23989 15.49 9.62989 15.83 10.0099 16.18C10.2999 16.45 10.6299 16.68 10.9699 16.89C11.2599 17.07 11.5599 17.21 11.8799 17.31C12.1999 17.42 12.5399 17.44 12.8699 17.37C13.1999 17.3 13.4899 17.13 13.7199 16.89C14.1499 16.44 14.5999 16.02 15.0799 15.62C15.3899 15.36 15.7399 15.15 16.1399 15.06C16.4599 14.99 16.7799 14.99 17.0999 15.06C17.5799 15.17 17.9999 15.4 18.4099 15.68C18.8499 15.97 19.2599 16.32 19.6499 16.67C19.9499 16.93 20.2599 17.19 20.5499 17.46C20.8699 17.75 21.1399 18.08 21.3799 18.43C21.6499 18.83 21.7899 19.27 21.6599 19.76C21.6099 19.94 21.5199 20.12 21.4099 20.27C21.1899 20.58 20.8899 20.81 20.6099 21.06C20.4799 21.17 20.3399 21.28 20.2199 21.4C19.8899 21.73 19.5299 22.01 19.1499 22.26C18.7099 22.55 18.2399 22.79 17.7399 22.96C17.4099 23.08 17.0799 23.18 16.7499 23.26C16.5399 23.31 16.3099 23.33 16.0899 23.35C15.7799 23.38 15.4699 23.4 15.1899 23.43H15.2099Z" fill="black"/>
</svg>
